<svg xmlns="http://www.w3.org/2000/svg" viewBox="0 0 1200 630" fill="none">
  <defs>
    <linearGradient id="og-bg" x1="0" y1="0" x2="1200" y2="630" gradientUnits="userSpaceOnUse">
      <stop stop-color="#0a1628"/>
      <stop offset="0.5" stop-color="#142240"/>
      <stop offset="1" stop-color="#1e4d8c"/>
    </linearGradient>
  </defs>
  <rect width="1200" height="630" fill="url(#og-bg)"/>
  <g opacity="0.06">
    <path d="M0 80 H1200 M0 160 H1200 M0 240 H1200 M0 320 H1200 M0 400 H1200 M0 480 H1200 M0 560 H1200" stroke="white" stroke-width="1"/>
    <path d="M120 0 V630 M240 0 V630 M360 0 V630 M480 0 V630 M600 0 V630 M720 0 V630 M840 0 V630 M960 0 V630 M1080 0 V630" stroke="white" stroke-width="1"/>
  </g>
  <circle cx="920" cy="315" r="140" fill="#142240" stroke="#2a6cb8" stroke-width="3"/>
  <path d="M800 340 Q920 360 1040 340" stroke="#2a6cb8" stroke-width="2.5" fill="none" opacity="0.7"/>
  <text x="920" y="330" text-anchor="middle" fill="#ffffff" font-family="Arial, sans-serif" font-size="64" font-weight="700">BA</text>
  <text x="80" y="120" fill="rgba(255,255,255,0.6)" font-family="Arial, sans-serif" font-size="16" font-weight="600" letter-spacing="5">BLUE ATLANTIC</text>
  <text x="80" y="220" fill="#ffffff" font-family="Arial, sans-serif" font-size="52" font-weight="600">Caribbean Enterprise</text>
  <text x="80" y="290" fill="#ffffff" font-family="Arial, sans-serif" font-size="52" font-weight="600">Infrastructure</text>
  <text x="80" y="380" fill="rgba(255,255,255,0.7)" font-family="Arial, sans-serif" font-size="22">Technology and enterprise infrastructure</text>
</svg>
